<svg width="87" height="66" viewBox="0 0 87 66" fill="none" xmlns="http://www.w3.org/2000/svg">
<path d="M53.1877 39.0749L50.2117 36.1096C39.1682 26.3402 31.95 19.7539 31.95 11.6755C31.95 5.1024 37.0522 0 43.6254 0C47.2466 0 50.8542 1.70175 53.1877 4.45989C55.5212 1.70175 59.1288 0 62.75 0C69.3231 0 74.4255 5.1024 74.4255 11.6755C74.4255 19.7537 67.2075 26.3402 56.1638 36.1096L53.1877 39.0749Z" fill="#FD7267"/>
<path d="M87 38.5952C86.2114 39.4526 85.2725 40.1934 84.4132 40.9736C83.3772 41.9154 82.3137 42.8263 81.2393 43.7228C79.2431 45.3897 77.2059 47.0053 75.2009 48.6616C74.8061 47.6565 73.9552 46.7977 73.0699 46.2101C71.7253 45.3171 70.1017 44.8584 68.4679 44.6201C69.4742 43.3115 71.1675 42.7704 72.6264 42.1246C74.3273 41.373 75.6861 40.1898 77.1424 39.0596C78.5774 37.9456 80.1363 36.9383 81.9953 36.8029C83.7323 36.6766 85.8676 37.1756 87 38.5952Z" fill="white"/>
<path d="M84.8404 35.0689C84.7034 35.496 84.3925 35.8867 84.1383 36.2485C83.6503 36.1506 83.1545 36.0931 82.6664 36.0657C80.6126 35.9477 78.7767 36.931 77.1765 38.1161C75.5712 39.3042 74.1362 40.6602 72.2903 41.4768C70.576 42.2342 68.7385 42.8686 67.6564 44.5031C67.6529 44.5078 67.6503 44.5124 67.6478 44.5171C67.1107 44.4613 66.5783 44.4255 66.0592 44.402C65.8818 44.394 65.7047 44.388 65.5273 44.3835C66.7396 43.0652 68.2602 42.0822 69.7787 41.1395C71.4547 40.0973 73.0561 39.0194 74.5945 37.7814C76.1355 36.5408 77.711 35.239 79.5882 34.5444C81.249 33.9304 83.4962 33.7279 84.8404 35.0689Z" fill="white"/>
<path d="M78.6989 34.1029C77.2607 34.7424 75.9688 35.7499 74.7585 36.7149C73.9569 37.3534 73.1689 38.007 72.3393 38.6098C71.4697 39.2426 70.5461 39.8014 69.6316 40.3671C67.7993 41.4995 65.9358 42.681 64.5679 44.3746C63.2217 44.3843 61.8766 44.4745 60.5328 44.5748C61.7262 43.3804 63.127 42.4128 64.4933 41.4245C66.0623 40.2911 67.4582 39.0235 68.8687 37.7034C70.2429 36.4186 71.7032 35.1763 73.4769 34.4882C75.0982 33.8593 76.9812 33.7265 78.6989 34.1029Z" fill="white"/>
<path d="M56.1787 52.7325C56.0907 52.7193 56.0083 52.7161 55.9641 52.6956C55.4839 52.6516 55.0015 52.615 54.5193 52.5866L53.3129 52.5288C53.2939 52.5171 53.1388 52.5434 53.1232 52.5296C52.4714 52.515 51.8187 52.5185 51.1679 52.5444L50.4776 52.5819C49.8762 52.6222 49.2756 52.6818 48.6789 52.7662C45.9729 53.1492 43.4004 53.977 40.9518 55.1836C40.5292 55.3926 40.157 54.76 40.5817 54.551C43.3041 53.2088 46.1808 52.3014 49.2041 51.967C51.5078 51.712 53.829 51.7596 56.1327 51.9761C56.1757 51.9779 56.2186 51.9816 56.2628 51.9878C56.6027 52.0211 56.9412 52.0576 57.2803 52.0971C59.5419 52.362 61.7832 52.7874 64.0528 52.9881C66.3383 53.1908 68.7501 53.2431 70.9476 52.4812C72.6591 51.8881 75.1726 51.0701 74.6188 48.8801C74.0845 46.7624 71.7449 46.3222 69.8336 45.7804C67.2832 45.058 64.612 45.0177 61.9804 45.0882C59.3667 45.1598 56.7468 44.6816 54.1324 44.6148C51.67 44.5515 49.1656 43.5792 47.0029 42.3315C46.9766 42.3216 46.949 42.3078 46.9225 42.2893C46.9107 42.2812 46.8988 42.2727 46.8868 42.2646C46.8832 42.2628 46.8795 42.261 46.8769 42.2583C46.8675 42.2539 46.8613 42.2472 46.853 42.2417C43.2916 39.7878 39.4515 36.6087 34.9247 36.4674C32.5403 36.3932 30.2366 37.0386 27.9211 37.5106C26.7853 37.7425 25.6119 37.9764 24.4495 38.0001C23.2936 38.0238 22.1385 38.0046 20.9826 37.9983C18.2873 37.9827 15.6116 38.1276 13.0685 39.1066C10.643 40.0408 8.32186 41.2508 6.19325 42.745C4.05999 44.2428 2.24028 46.0469 0.361185 47.8391C0.241195 47.9536 0.121003 48.0681 0 48.182L9.85091 62.897C10.4377 62.4679 11.0482 62.0729 11.6862 61.7236C13.9936 60.4613 16.4805 59.8719 19.1098 59.9094C21.7783 59.9469 24.4542 60.4226 27.0494 61.0148C29.9526 61.6784 32.821 62.4788 35.6996 63.2377C38.5623 63.9913 41.4447 64.7201 44.3652 65.2114C47.1933 65.6861 50.2183 65.9669 53.0454 65.3304C53.073 65.3241 53.0997 65.3213 53.1263 65.3205C55.8066 63.7162 58.0323 61.509 60.2381 59.3216C61.3381 58.2308 62.4372 57.1361 63.6006 56.1131C64.4953 55.3267 65.421 54.5024 66.4433 53.8617C63.6233 53.8572 60.7762 53.286 57.983 52.9184L56.1787 52.7325Z" fill="white"/>
<path d="M60.739 43.1179C60.7597 43.1171 60.7804 43.1165 60.801 43.1158V43.0627C60.7806 43.0814 60.7593 43.0992 60.739 43.1179Z" fill="black"/>
</svg>
